<svg xmlns="http://www.w3.org/2000/svg" viewBox="0 0 150.71 150.71"><defs><style>.cls-1{fill:#2f378c;}.cls-2{fill:#e6007e;}.cls-3{fill:#fff;}</style></defs><g id="Capa_2" data-name="Capa 2"><g id="Capa_2-2" data-name="Capa 2"><rect class="cls-1" width="150.71" height="150.71"/><path class="cls-2" d="M65,45.22C52.84,38.27,52.48,28,56.18,15.92c-10.81,5.16-20.37,11-28.28,19.17C16.67,46.69,11.26,60.41,13.38,76.71c1.15,8.89,3.46,13.8,8.07,21.44.15.24,1.31,1.49,1.57,1.87C18.24,87.65,15,77.16,18.31,64,21.69,50.56,34.49,38.7,46.19,32.11,37.33,40.23,26.64,52.36,24.7,64.58c-1.66,10.48,3.41,29,9,33.92-.22-.83-2.08-5.34-2.16-5.69-1.38-5.76-2-7.5-2.8-13.34-1.34-9.75-.1-19.15,6.45-27.13,2.81-3.43,8.59-7.68,12.9-9.08-6.25,7.2-12.92,16.81-13.23,26.5S38,86.71,43.94,94.24c-4.43-9.88-7.69-18.82-3.19-29.45S54.34,49,65,45.22Z"/><path class="cls-2" d="M74.67,40.12A13.63,13.63,0,1,0,61.26,26.48,13.68,13.68,0,0,0,74.67,40.12Z"/><path class="cls-3" d="M129,48.88c2.32,9.92,5.34,23.56,3.85,33.72A45.1,45.1,0,0,1,119.66,109c-7.75,7.6-22,15.55-25.71,14.09,24.9-9,44.65-43.27,23.77-70.53,4.45,12.58,7.08,28,.39,40.13-6,10.89-20.9,21.44-28.09,22,1.22-.65,1.45-.77,2.24-1.15,15.21-7.2,24.21-24.52,22.15-41.23-1.09-7.72-6.31-14.53-9.36-16.76,4.5,9.13,9,19.43,3.61,30.8-4.55,8.93-11.73,14.12-20.63,17.82,0-8.93-.13-17.57,0-26.21s.62-17.24,1-26.08H62.9C63.33,60.08,64,68,64.11,76c.37,19.34.52,38.69.68,58,0,1.94.51,2.73,2.56,3,14,2.08,27.12,0,39.41-7.26,19.2-11.4,33.93-33.19,30.54-58.23A68.58,68.58,0,0,0,129,48.88Z"/></g></g></svg>