<svg xmlns="http://www.w3.org/2000/svg" viewBox="0 0 493.76 153.88"><defs><style>.cls-1{fill:none;}.cls-2{fill:#e6007e;}.cls-3{fill:#00519f;}.cls-4{fill:#fff;}</style></defs><g id="Capa_2" data-name="Capa 2"><g id="SVG"><rect class="cls-1" width="493.76" height="153.88"/><path class="cls-2" d="M68,46.1c-12.13-6.94-12.49-17.26-8.79-29.3C48.37,22,38.82,27.8,30.9,36,19.67,47.58,14.26,61.29,16.38,77.59c1.15,8.89,3.46,13.8,8.08,21.44.14.24,1.3,1.49,1.56,1.87C21.24,88.53,18,78,21.31,64.83,24.69,51.44,37.49,39.58,49.19,33,40.33,41.11,29.64,53.24,27.7,65.46c-1.66,10.48,3.41,29,9,33.92-.22-.83-2.08-5.34-2.16-5.68-1.38-5.77-2-7.51-2.8-13.35-1.33-9.75-.09-19.15,6.45-27.13,2.82-3.43,8.6-7.68,12.9-9.07C44.83,51.34,38.15,61,37.84,70.64s3.13,17,9.1,24.48c-4.43-9.88-7.68-18.82-3.19-29.44S57.34,49.9,68,46.1Z"/><path class="cls-2" d="M77.67,41A13.63,13.63,0,1,0,64.26,27.36,13.7,13.7,0,0,0,77.67,41Z"/><path class="cls-3" d="M356.47,114.69c-13.07-47,2.16-75.39,41.24-97.8C358,4.48,320.63-.32,280.56,2,223.74,5.31,175.19,25.11,140,72.47c-19.16,25.82-25.57,44.08-33,74.91-.23,1-.53,3-.81,4.58C125,108.45,142.93,77.45,184,51.13c41.67-26.69,103-26.9,148.6-16.06C290.37,35,232.78,39.94,198.42,68c-28.92,23.64-40.79,53.38-53.68,84.42,1.49-2.67,4.63-7.89,5.29-9,10.86-18.24,6.89-11.64,19.39-28.71,20.87-28.48,49.37-48.42,85.49-53.5,15.56-2.19,40.53.58,54.72,7.23-33.42,3.77-68.87,8.76-89.76,36.61-23.76,31.67-24.41,33.64-30.77,47,21.43-24.64,16-21.86,48.85-45.23C271.27,83.21,320.5,99.18,356.47,114.69Z"/><path class="cls-3" d="M395.48,121.29c18,19.17,49.54,19.65,68.67,1C483,104,483.67,73.38,465.62,54.43c-18.37-19.29-49.48-19.8-68.63-1.14A48.76,48.76,0,0,0,395.48,121.29Z"/><path class="cls-4" d="M132,49.76c2.33,9.93,5.34,23.56,3.85,33.72a45.15,45.15,0,0,1-13.21,26.43c-7.75,7.59-22,15.54-25.71,14.09,24.9-9,44.65-43.28,23.78-70.54,4.44,12.58,7.08,28,.38,40.13-6,10.89-20.9,21.44-28.09,22,1.22-.65,1.45-.77,2.24-1.14,15.21-7.21,24.21-24.52,22.15-41.24-1.09-7.72-6.3-14.53-9.35-16.75,4.49,9.12,9,19.43,3.6,30.79-4.55,8.93-11.73,14.13-20.63,17.82,0-8.93-.13-17.57,0-26.21s.62-17.24,1-26.07H65.9C66.33,61,67,68.92,67.12,76.89c.36,19.34.52,38.69.68,58,0,1.93.51,2.72,2.55,3,14,2.07,27.13,0,39.42-7.27,19.19-11.4,33.92-33.18,30.53-58.23A68.58,68.58,0,0,0,132,49.76Z"/><path class="cls-4" d="M189.59,75.32a22.5,22.5,0,0,0-4.85,2.44c-1.14.73-1.86.95-3-.08-4.1-3.56-8.24-3.94-13.08-1.41-1.11.58-2.17,1.26-3,1.76-.87-1-1.56-2.38-2.35-2.43-3.56-.25-7.16-.11-10.47-.11v38.24H166c0-8.77,0-17.32,0-25.86,0-2.17.86-3.69,3-3.75s3,1.61,3,3.7q-.18,9.57-.32,19.12c0,2.24,0,4.48,0,6.9h14a38.74,38.74,0,0,1-.6-4.46c-.15-6.65-.22-13.29-.28-19.94a11.75,11.75,0,0,1,.26-2.71,3.16,3.16,0,0,1,3.58-2.66c1.88.12,2.58,1.33,2.56,3.18,0,5.28.05,10.56,0,15.84-.05,3.52-.32,7-.5,10.69H204c-.17-9.64-.44-18.92-.46-28.2C203.56,77.62,197.16,72.78,189.59,75.32Z"/><path class="cls-4" d="M267.92,77.51c.05,7.87.09,15.74.2,23.6,0,2.29-1.14,3.46-3.22,3.6-2.32.16-3.21-1.27-3.22-3.46,0-2.93-.11-5.86-.12-8.78,0-5.65,0-11.31,0-17a13.49,13.49,0,0,0-1.74-.24c-3.64,0-7.27,0-10.77,0,0,9.77,0,19.09,0,28.4,0,6.39,4.42,11.16,10.79,10.88,3.27-.14,6.48-1.59,9.78-2.47.42.36,1.22,1.63,2.11,1.7,3.26.25,6.54.1,9.51.1V75.4H268C268,76.25,267.91,76.88,267.92,77.51Z"/><path class="cls-4" d="M328.25,92.16a77.45,77.45,0,0,1-7.8-4c-1.15-.75-2.44-2.56-2.26-3.67A3.46,3.46,0,0,1,320.42,82a8.39,8.39,0,0,1,3.7,0c2.33.63,4.56,1.91,7.3,2.76,0-2.5,0-5.31.17-7.56.09-1.65-1-1.62-1.52-1.65-7.43-.38-13.29-.87-19.16,3.05-7.15,4.78-6.58,13.92,1,17.93a94.09,94.09,0,0,1,8.48,4.53c1.09.73,2.21,2.71,1.95,3.79a3.35,3.35,0,0,1-3,2.18,23.13,23.13,0,0,1-7.21-1.49c-2.16-.79-3.79-3-5.88-4.23,0,2.91-.37,6.51-.47,9-.06,1.64.6,2.51,2.21,2.65,4.49.4,9,1,13.47,1.09,4.18.07,7.65-1.94,10.3-5.16A10.68,10.68,0,0,0,328.25,92.16Z"/><path class="cls-4" d="M287.13,113.84h12.58V59.66H287.13Z"/><path class="cls-4" d="M386.8,79c-.23-1.54-.39-2.59-.55-3.64H373.86v38.08h14c0-6,.08-11.77,0-17.49-.13-7.41,2.65-10.64,9.87-11.19.14,0,.26-.2.39-.31V74.55C393.38,73.42,390.1,75.89,386.8,79Z"/><path class="cls-4" d="M356,75c-4.51-.74-9.23-.21-13.86-.14-.54,0-1.52.71-1.54,1.14-.15,2.54-.08,5.1-.08,7.84,9.84-4.16,14.61-3.34,15.58,2.6-2.2.59-4.6.83-6.61,1.86-3.24,1.67-6.78,3.32-9.19,5.93a11.48,11.48,0,0,0-1.88,13.39c2.31,4.72,6.38,6.9,11.77,6,2.54-.43,4.91-1.83,7.45-2.82.52.56,1.12,1.82,1.79,1.86,3.29.21,6.6.09,9.28.09-.18-7.56-.55-14.78-.48-22C368.35,81.92,364.58,76.43,356,75Zm1.06,27.48a3.63,3.63,0,0,1-3.33,3.84,4.15,4.15,0,0,1-4.76-2.53c-1.21-2.68-.47-5.65,2.17-7.74a67.73,67.73,0,0,1,5.95-3.72C357.12,96.36,357.18,99.44,357.09,102.51Z"/><path class="cls-2" d="M423.53,107c-2.72,0-5.77-.37-5.9-3.11-.3-6.43-.1-12.88-.1-19.39l5.5-.27V75.85h-5.76c0-3.38.3-8,.12-11,0-.71.25-.53-.59-.56-3.36-.12-7.62,0-11.26,0V76H400.6V84.3l4.89.32c0,3.37,0,6.46,0,9.56s-.08,6.22.08,9.32c.38,7.69,4.13,11.07,12,11,5.63-.07,6.21-.43,6-5.89C423.56,108.3,423.52,107.32,423.53,107Z"/><path class="cls-4" d="M231.92,74.67c-3.22-.25-6.58,1.4-10,2.23-.31-.26-1-1.42-1.87-1.47-3.25-.22-6.53-.09-9.86-.09v52.42h12.39c-.16-2.59-.36-4.93-.43-7.27s0-4.65,0-7c8.83,1.58,14-.67,18.12-8.17a26.23,26.23,0,0,0,2.4-20.48C241.08,79.39,237.83,75.11,231.92,74.67Zm-3.09,29.93c-1.15,1.77-2.58,3.09-4.88,2.38s-2.22-2.46-2.15-4.34c.09-2.34,0-4.7,0-7,0-2.63.11-5.26,0-7.89-.13-2.41,1.19-4,3.18-4.26,1.46-.19,3.76.55,4.5,1.66a14.86,14.86,0,0,1,2.08,6.54A19.42,19.42,0,0,1,228.83,104.6Z"/><path class="cls-2" d="M439.93,99.67c5.12-2,10.23-4.23,15.5-6,3.06-1,3.91-2.39,3.42-5.53-1.05-6.81-5.28-12.24-11.12-13.46-7.55-1.59-14.39,1.23-18.09,7.49-3,5.13-3.65,10.65-2.88,16.46,1,7.32,4.42,12.76,11.83,14.93,7.87,2.3,14.53-.07,20.31-6l-3.56-4C447.24,109.92,439.88,105.64,439.93,99.67Zm-2.12-6.87c.29-3,.34-5.28.76-7.48.52-2.7,3.09-4.56,5.33-4.11,2.93.58,2.72,3,3,5.1.27,1.78.28,3.28-2.08,3.87A70,70,0,0,0,437.81,92.8Z"/><path class="cls-4" d="M247.42,139.82a4.24,4.24,0,0,1-3-.94,3.47,3.47,0,0,1-1-2.7,6.54,6.54,0,0,1,.46-2.52,6.08,6.08,0,0,1,1.27-2,5.58,5.58,0,0,1,1.88-1.25,6.11,6.11,0,0,1,2.32-.45,8,8,0,0,1,1.81.2,5.66,5.66,0,0,1,1.51.59l-.55,2.29h-.28a4.65,4.65,0,0,0-1.2-1,3.12,3.12,0,0,0-1.41-.31A2.86,2.86,0,0,0,246.9,133a4.48,4.48,0,0,0-.92,2.9,2.23,2.23,0,0,0,.51,1.63A2,2,0,0,0,248,138a4,4,0,0,0,1.64-.35,7.29,7.29,0,0,0,1.45-.9h.26l-.55,2.26-.67.28c-.25.1-.5.19-.73.26a6.82,6.82,0,0,1-.85.2A6.49,6.49,0,0,1,247.42,139.82Z"/><path class="cls-4" d="M258.29,134.69h-.2a1.84,1.84,0,0,0-.43-.08,5.24,5.24,0,0,0-.56,0,6,6,0,0,0-.86.06,6.16,6.16,0,0,0-.87.22l-1.1,4.77H252l1.65-7.13h2.3l-.24,1.05a7.39,7.39,0,0,1,1.29-.78,3,3,0,0,1,1.29-.3h.27l.27,0Z"/><path class="cls-4" d="M262.09,139.84a4.35,4.35,0,0,1-2.82-.81,2.72,2.72,0,0,1-1-2.23,4.75,4.75,0,0,1,.33-1.79,4.2,4.2,0,0,1,.93-1.43,4.27,4.27,0,0,1,1.46-.94,5,5,0,0,1,1.92-.35,3.81,3.81,0,0,1,2.41.64,2.3,2.3,0,0,1,.81,1.91,3.86,3.86,0,0,1-.09.84,5.84,5.84,0,0,1-.22.82h-5.31v.15a1.43,1.43,0,0,0,.52,1.16,2.53,2.53,0,0,0,1.6.42,4.16,4.16,0,0,0,1.42-.25,6.38,6.38,0,0,0,1.17-.57h.26l-.43,1.84a7.14,7.14,0,0,1-1.4.44A8,8,0,0,1,262.09,139.84Zm1.74-4.68a.76.76,0,0,0,0-.21,1.21,1.21,0,0,0,0-.19,1,1,0,0,0-.31-.78,1.4,1.4,0,0,0-.9-.26,1.83,1.83,0,0,0-1.19.38,2.37,2.37,0,0,0-.73,1.06Zm2-6-2.78,2.36h-1.62l2-2.49h2.41Z"/><path class="cls-4" d="M275.56,129.76l-2.28,9.88H271l.17-.74-.58.37a3.26,3.26,0,0,1-.55.31,2.72,2.72,0,0,1-.57.19,3,3,0,0,1-.66.07,2.13,2.13,0,0,1-1.65-.68,2.68,2.68,0,0,1-.62-1.91,5.76,5.76,0,0,1,.32-1.91,5.27,5.27,0,0,1,.9-1.57,4.32,4.32,0,0,1,1.32-1.06,3.36,3.36,0,0,1,1.6-.4,3.73,3.73,0,0,1,1,.12,3.92,3.92,0,0,1,.89.37l.7-3Zm-3.32,4.42a2.43,2.43,0,0,0-.48-.16,2.15,2.15,0,0,0-.53-.07,2,2,0,0,0-1,.24,2.3,2.3,0,0,0-.74.65,2.84,2.84,0,0,0-.43,1,4.09,4.09,0,0,0-.16,1.12,1.27,1.27,0,0,0,.3.93,1.25,1.25,0,0,0,.9.29,1.82,1.82,0,0,0,.66-.14,4.07,4.07,0,0,0,.66-.33Z"/><path class="cls-4" d="M279,132.51l-1.65,7.13h-2.3l1.65-7.13Zm.7-2.75-.4,1.73h-2.42l.4-1.73Z"/><path class="cls-4" d="M281.87,139.78a2.82,2.82,0,0,1-1.69-.39,1.37,1.37,0,0,1-.51-1.16,2.38,2.38,0,0,1,0-.39q0-.19.09-.45l.78-3.38h-.95l.35-1.5h.94l.47-2h2.29l-.46,2h2.14L285,134h-2.14l-.59,2.58c0,.17-.09.35-.13.53a2.13,2.13,0,0,0-.05.46.6.6,0,0,0,.21.53,1.13,1.13,0,0,0,.65.15,1.9,1.9,0,0,0,.47-.07,2.32,2.32,0,0,0,.46-.14h.19l-.36,1.53a6.19,6.19,0,0,1-.81.14A7.62,7.62,0,0,1,281.87,139.78Z"/><path class="cls-4" d="M292.92,135.12a5.1,5.1,0,0,1-.34,1.88,4.31,4.31,0,0,1-.95,1.5,4.39,4.39,0,0,1-1.47,1,5.1,5.1,0,0,1-2,.35,3.56,3.56,0,0,1-2.45-.76,2.71,2.71,0,0,1-.85-2.11,5.22,5.22,0,0,1,.32-1.81,4.33,4.33,0,0,1,2.42-2.52,5,5,0,0,1,2-.37,3.59,3.59,0,0,1,2.45.75A2.65,2.65,0,0,1,292.92,135.12Zm-3,2.34a3.63,3.63,0,0,0,.44-1,4.68,4.68,0,0,0,.15-1.28,1.55,1.55,0,0,0-.29-1,1.09,1.09,0,0,0-.91-.36,1.48,1.48,0,0,0-.84.24,2.16,2.16,0,0,0-.65.66,3.47,3.47,0,0,0-.41,1,5,5,0,0,0-.15,1.22,1.4,1.4,0,0,0,.33,1,1.21,1.21,0,0,0,.89.32,1.56,1.56,0,0,0,.79-.23A2.13,2.13,0,0,0,290,137.46Z"/><path class="cls-4" d="M296,139.84a8.57,8.57,0,0,1-1.77-.18,4.87,4.87,0,0,1-1.31-.4l.44-1.88h.21a2.87,2.87,0,0,0,.35.27,3.08,3.08,0,0,0,.61.31,5.13,5.13,0,0,0,.78.25,4.1,4.1,0,0,0,1,.1,2.81,2.81,0,0,0,1.15-.18.54.54,0,0,0,.39-.5.43.43,0,0,0-.28-.39,6.13,6.13,0,0,0-1.13-.33,5,5,0,0,1-2-.81,1.53,1.53,0,0,1-.54-1.19,2.15,2.15,0,0,1,1.08-1.9,5.37,5.37,0,0,1,2.92-.7,7.91,7.91,0,0,1,1.6.17,5,5,0,0,1,1.17.34l-.42,1.8H300a3.73,3.73,0,0,0-1.09-.56,4,4,0,0,0-1.32-.22,3,3,0,0,0-1.12.17.58.58,0,0,0-.39.54.47.47,0,0,0,.34.43,5.56,5.56,0,0,0,1.06.3,5.14,5.14,0,0,1,1.94.74,1.46,1.46,0,0,1,.6,1.24,2.15,2.15,0,0,1-1.09,1.89A5.52,5.52,0,0,1,296,139.84Z"/><path class="cls-4" d="M313.09,134.79a5.89,5.89,0,0,1-.32,1.91,5.29,5.29,0,0,1-.87,1.59,4.33,4.33,0,0,1-1.31,1.09,3.24,3.24,0,0,1-1.62.4,4,4,0,0,1-1.06-.13,3.49,3.49,0,0,1-.86-.37l-.69,3h-2.3l2.25-9.74h2.3l-.17.74a8.6,8.6,0,0,1,1.2-.69,3,3,0,0,1,1.22-.25,2.08,2.08,0,0,1,1.65.66A2.63,2.63,0,0,1,313.09,134.79Zm-3,2.5a3.24,3.24,0,0,0,.42-.94,4.23,4.23,0,0,0,.15-1.16,1.37,1.37,0,0,0-.26-.89,1.13,1.13,0,0,0-.9-.3,2.08,2.08,0,0,0-.66.11,5.1,5.1,0,0,0-.69.31l-.83,3.59a2.09,2.09,0,0,0,.48.13,2.5,2.5,0,0,0,.55.05,2,2,0,0,0,1-.25A2,2,0,0,0,310.11,137.29Z"/><path class="cls-4" d="M317.9,138.88l-.52.34a5.91,5.91,0,0,1-.57.32,5.78,5.78,0,0,1-.67.22,3.73,3.73,0,0,1-.86.08,2.11,2.11,0,0,1-1.45-.5,1.65,1.65,0,0,1-.56-1.3,2.49,2.49,0,0,1,.4-1.44,2.67,2.67,0,0,1,1.18-.93,6.73,6.73,0,0,1,1.75-.48c.68-.1,1.42-.17,2.21-.22a.49.49,0,0,1,0-.12,1.11,1.11,0,0,0,0-.19.65.65,0,0,0-.42-.64,3.34,3.34,0,0,0-1.25-.18,5,5,0,0,0-1.25.19c-.45.13-.8.24-1,.32h-.21l.33-1.69c.27-.07.68-.14,1.24-.23a11.83,11.83,0,0,1,1.67-.12,5.14,5.14,0,0,1,2.46.44,1.44,1.44,0,0,1,.78,1.35,2.06,2.06,0,0,1,0,.33,1.68,1.68,0,0,1-.06.36L320,139.64h-2.27Zm.6-2.61-1.14.12a4.83,4.83,0,0,0-.92.21,1.28,1.28,0,0,0-.59.39,1,1,0,0,0-.2.67.54.54,0,0,0,.27.52,1.65,1.65,0,0,0,.79.15,2,2,0,0,0,.72-.15,3.59,3.59,0,0,0,.72-.4Z"/><path class="cls-4" d="M328,134.69h-.2a1.84,1.84,0,0,0-.43-.08,5.15,5.15,0,0,0-.55,0,6.15,6.15,0,0,0-.87.06,5.72,5.72,0,0,0-.86.22L324,139.64h-2.3l1.65-7.13h2.3l-.24,1.05a7.39,7.39,0,0,1,1.29-.78,3,3,0,0,1,1.3-.3h.27l.26,0Z"/><path class="cls-4" d="M332.31,138.88l-.52.34a4.85,4.85,0,0,1-.56.32,5.78,5.78,0,0,1-.67.22,3.79,3.79,0,0,1-.86.08,2.14,2.14,0,0,1-1.46-.5,1.69,1.69,0,0,1-.56-1.3,2.57,2.57,0,0,1,.4-1.44,2.7,2.7,0,0,1,1.19-.93,6.62,6.62,0,0,1,1.75-.48c.68-.1,1.41-.17,2.21-.22,0,0,0-.06,0-.12a.58.58,0,0,0,0-.19.65.65,0,0,0-.41-.64,3.34,3.34,0,0,0-1.25-.18,4.94,4.94,0,0,0-1.25.19c-.46.13-.8.24-1,.32h-.21l.34-1.69c.27-.07.68-.14,1.24-.23a11.73,11.73,0,0,1,1.67-.12,5.19,5.19,0,0,1,2.46.44,1.44,1.44,0,0,1,.78,1.35c0,.09,0,.2,0,.33s0,.26-.06.36l-1.12,4.85h-2.27Zm.61-2.61-1.15.12a4.72,4.72,0,0,0-.91.21,1.23,1.23,0,0,0-.59.39,1,1,0,0,0-.21.67.54.54,0,0,0,.27.52,1.71,1.71,0,0,0,.79.15,2,2,0,0,0,.73-.15,3.89,3.89,0,0,0,.72-.4Z"/><path class="cls-4" d="M348.8,132.51l-1.43,6.31a5.37,5.37,0,0,1-.67,1.69,3.58,3.58,0,0,1-1.05,1.07,4,4,0,0,1-1.37.58,7.86,7.86,0,0,1-1.68.16,11.61,11.61,0,0,1-1.47-.09,10.56,10.56,0,0,1-1.19-.21l.35-1.75h.28a8.2,8.2,0,0,0,1.07.32,4.48,4.48,0,0,0,1,.12,4.64,4.64,0,0,0,1-.11,1.75,1.75,0,0,0,.7-.32,1.67,1.67,0,0,0,.43-.55,2.93,2.93,0,0,0,.26-.79l0-.13a5.24,5.24,0,0,1-1,.53,3,3,0,0,1-1.11.2,2.67,2.67,0,0,1-1.87-.61,2.32,2.32,0,0,1-.68-1.82,5,5,0,0,1,1.19-3.45,3.69,3.69,0,0,1,2.88-1.35,3.82,3.82,0,0,1,1.11.15,2.78,2.78,0,0,1,.81.37l.15-.32Zm-2.67,1.65a4,4,0,0,0-.49-.16,2.87,2.87,0,0,0-.53-.07,2,2,0,0,0-1.65.77,3,3,0,0,0-.62,2,1.32,1.32,0,0,0,.26.86,1.26,1.26,0,0,0,1,.3,1.86,1.86,0,0,0,.68-.13,4.33,4.33,0,0,0,.65-.31Z"/><path class="cls-4" d="M355.26,134.69h-.2a1.73,1.73,0,0,0-.43-.08,5.15,5.15,0,0,0-.55,0,6.15,6.15,0,0,0-.87.06,5.72,5.72,0,0,0-.86.22l-1.11,4.77h-2.3l1.65-7.13h2.31l-.25,1.05a7.39,7.39,0,0,1,1.29-.78,3,3,0,0,1,1.3-.3h.27l.26,0Z"/><path class="cls-4" d="M359.54,138.88l-.52.34a5.91,5.91,0,0,1-.57.32,5.78,5.78,0,0,1-.67.22,3.73,3.73,0,0,1-.86.08,2.11,2.11,0,0,1-1.45-.5,1.65,1.65,0,0,1-.56-1.3,2.49,2.49,0,0,1,.4-1.44,2.67,2.67,0,0,1,1.18-.93,6.73,6.73,0,0,1,1.75-.48c.68-.1,1.42-.17,2.21-.22a.49.49,0,0,1,0-.12,1.11,1.11,0,0,0,0-.19.65.65,0,0,0-.42-.64,3.34,3.34,0,0,0-1.25-.18,5,5,0,0,0-1.25.19c-.45.13-.8.24-1,.32h-.21l.33-1.69c.27-.07.68-.14,1.24-.23a11.83,11.83,0,0,1,1.67-.12,5.14,5.14,0,0,1,2.46.44,1.44,1.44,0,0,1,.78,1.35,2.06,2.06,0,0,1,0,.33,1.68,1.68,0,0,1-.06.36l-1.12,4.85h-2.27Zm.6-2.61-1.14.12a4.66,4.66,0,0,0-.92.21,1.28,1.28,0,0,0-.59.39,1,1,0,0,0-.2.67.54.54,0,0,0,.27.52,1.65,1.65,0,0,0,.79.15,2,2,0,0,0,.72-.15,3.59,3.59,0,0,0,.72-.4Z"/><path class="cls-4" d="M371.71,134.12c0,.13,0,.27,0,.42a4.64,4.64,0,0,1-.09.46l-1.06,4.64h-2.31l.81-3.54c.06-.26.1-.48.14-.67a3.37,3.37,0,0,0,.05-.52.75.75,0,0,0-.21-.6,1.15,1.15,0,0,0-.77-.19,2.32,2.32,0,0,0-.63.11,5.29,5.29,0,0,0-.8.36l-1.16,5h-2.3l1.64-7.13h2.3l-.18.79a10.55,10.55,0,0,1,1.28-.73,3.18,3.18,0,0,1,1.28-.26,2.23,2.23,0,0,1,1.5.47A1.69,1.69,0,0,1,371.71,134.12Z"/><path class="cls-4" d="M381.49,129.76l-2.29,9.88h-2.3l.17-.74-.58.37a2.91,2.91,0,0,1-.55.31,2.65,2.65,0,0,1-.56.19,3.21,3.21,0,0,1-.67.07,2.13,2.13,0,0,1-1.65-.68,2.73,2.73,0,0,1-.62-1.91,5.52,5.52,0,0,1,.33-1.91,5,5,0,0,1,.89-1.57,4.24,4.24,0,0,1,1.33-1.06,3.29,3.29,0,0,1,1.59-.4,3.73,3.73,0,0,1,1,.12,3.92,3.92,0,0,1,.89.37l.71-3Zm-3.33,4.42a2.43,2.43,0,0,0-.48-.16,2.13,2.13,0,0,0-.52-.07,2,2,0,0,0-1,.24,2.3,2.3,0,0,0-.74.65,2.84,2.84,0,0,0-.43,1,4.09,4.09,0,0,0-.16,1.12,1.05,1.05,0,0,0,1.2,1.22,1.82,1.82,0,0,0,.66-.14,4.07,4.07,0,0,0,.66-.33Z"/><path class="cls-4" d="M385,139.84a4.34,4.34,0,0,1-2.81-.81,2.72,2.72,0,0,1-1-2.23,5,5,0,0,1,.32-1.79,4.39,4.39,0,0,1,.94-1.43,4.18,4.18,0,0,1,1.46-.94,5,5,0,0,1,1.92-.35,3.81,3.81,0,0,1,2.41.64,2.3,2.3,0,0,1,.81,1.91,3.86,3.86,0,0,1-.09.84,5.87,5.87,0,0,1-.23.82h-5.3v.15a1.4,1.4,0,0,0,.52,1.16,2.53,2.53,0,0,0,1.6.42A4.2,4.2,0,0,0,387,138a6.38,6.38,0,0,0,1.17-.57h.25l-.42,1.84a7.45,7.45,0,0,1-1.41.44A7.82,7.82,0,0,1,385,139.84Zm1.75-4.68,0-.21a1.21,1.21,0,0,0,0-.19,1,1,0,0,0-.31-.78,1.4,1.4,0,0,0-.9-.26,1.83,1.83,0,0,0-1.19.38,2.37,2.37,0,0,0-.73,1.06Z"/><path class="cls-4" d="M392,139.84a8.57,8.57,0,0,1-1.77-.18,5.09,5.09,0,0,1-1.32-.4l.44-1.88h.21a3.05,3.05,0,0,0,.36.27,3.25,3.25,0,0,0,.6.31,6,6,0,0,0,.78.25,4.22,4.22,0,0,0,1,.1,2.86,2.86,0,0,0,1.16-.18.54.54,0,0,0,.38-.5.42.42,0,0,0-.27-.39,6.13,6.13,0,0,0-1.13-.33,5,5,0,0,1-2-.81,1.56,1.56,0,0,1-.53-1.19A2.15,2.15,0,0,1,391,133a5.34,5.34,0,0,1,2.92-.7,8,8,0,0,1,1.6.17,5,5,0,0,1,1.17.34l-.42,1.8H396a3.61,3.61,0,0,0-1.09-.56,3.88,3.88,0,0,0-1.31-.22,3,3,0,0,0-1.12.17.58.58,0,0,0-.39.54.48.48,0,0,0,.33.43,5.71,5.71,0,0,0,1.07.3,5.29,5.29,0,0,1,1.94.74,1.48,1.48,0,0,1,.59,1.24,2.13,2.13,0,0,1-1.09,1.89A5.48,5.48,0,0,1,392,139.84Z"/><path class="cls-4" d="M409,134.12c0,.1,0,.24,0,.4a4,4,0,0,1-.09.48l-1.07,4.64h-2.31l.82-3.54c.06-.27.1-.5.14-.68a3.37,3.37,0,0,0,.05-.5.8.8,0,0,0-.21-.62,1.26,1.26,0,0,0-.78-.18,2.2,2.2,0,0,0-.62.11,4.88,4.88,0,0,0-.8.36l-1.16,5h-2.3l2.27-9.88h2.3l-.81,3.54a9.84,9.84,0,0,1,1.28-.73,3.2,3.2,0,0,1,1.29-.26,2.14,2.14,0,0,1,1.49.48A1.66,1.66,0,0,1,409,134.12Z"/><path class="cls-4" d="M413.53,132.51l-1.65,7.13h-2.3l1.65-7.13Zm.7-2.75-.4,1.73H411.4l.4-1.73Z"/><path class="cls-4" d="M416.4,139.84a8.57,8.57,0,0,1-1.77-.18,4.87,4.87,0,0,1-1.31-.4l.44-1.88H414a2.87,2.87,0,0,0,.35.27,3.08,3.08,0,0,0,.61.31,5.13,5.13,0,0,0,.78.25,4.1,4.1,0,0,0,1,.1,2.81,2.81,0,0,0,1.15-.18.54.54,0,0,0,.39-.5.42.42,0,0,0-.28-.39,6.13,6.13,0,0,0-1.13-.33,5,5,0,0,1-2-.81,1.53,1.53,0,0,1-.54-1.19,2.15,2.15,0,0,1,1.08-1.9,5.37,5.37,0,0,1,2.92-.7,7.91,7.91,0,0,1,1.6.17,5,5,0,0,1,1.17.34l-.42,1.8h-.19a3.73,3.73,0,0,0-1.09-.56,4,4,0,0,0-1.32-.22,3,3,0,0,0-1.12.17.58.58,0,0,0-.39.54.47.47,0,0,0,.34.43,5.56,5.56,0,0,0,1.06.3,5.14,5.14,0,0,1,1.94.74,1.46,1.46,0,0,1,.6,1.24,2.15,2.15,0,0,1-1.09,1.89A5.52,5.52,0,0,1,416.4,139.84Z"/><path class="cls-4" d="M423.74,139.78a2.86,2.86,0,0,1-1.7-.39,1.39,1.39,0,0,1-.5-1.16,2.38,2.38,0,0,1,0-.39c0-.13.05-.28.08-.45l.78-3.38h-.94l.35-1.5h.94l.47-2h2.29l-.47,2h2.14l-.35,1.5h-2.13l-.6,2.58-.12.53a2.23,2.23,0,0,0-.06.46.6.6,0,0,0,.21.53,1.15,1.15,0,0,0,.66.15,2,2,0,0,0,.47-.07,2.55,2.55,0,0,0,.46-.14h.19l-.36,1.53a6.67,6.67,0,0,1-.82.14A7.36,7.36,0,0,1,423.74,139.78Z"/><path class="cls-4" d="M434.78,135.12a5.31,5.31,0,0,1-.33,1.88,4.43,4.43,0,0,1-2.42,2.51,5.12,5.12,0,0,1-2,.35,3.53,3.53,0,0,1-2.44-.76,2.68,2.68,0,0,1-.85-2.11,5.22,5.22,0,0,1,.31-1.81,4.63,4.63,0,0,1,.94-1.51,4.37,4.37,0,0,1,1.49-1,4.94,4.94,0,0,1,2-.37,3.56,3.56,0,0,1,2.44.75A2.61,2.61,0,0,1,434.78,135.12Zm-3,2.34a3.34,3.34,0,0,0,.44-1,4.68,4.68,0,0,0,.15-1.28,1.55,1.55,0,0,0-.28-1,1.11,1.11,0,0,0-.91-.36,1.51,1.51,0,0,0-.85.24,2.13,2.13,0,0,0-.64.66,3.21,3.21,0,0,0-.41,1,5,5,0,0,0-.15,1.22,1.44,1.44,0,0,0,.32,1,1.23,1.23,0,0,0,.89.32,1.51,1.51,0,0,0,.79-.23A2,2,0,0,0,431.81,137.46Z"/><path class="cls-4" d="M441.43,134.69h-.2a1.73,1.73,0,0,0-.43-.08,5.15,5.15,0,0,0-.55,0,6.15,6.15,0,0,0-.87.06,5.72,5.72,0,0,0-.86.22l-1.11,4.77h-2.3l1.65-7.13h2.3l-.24,1.05a7.39,7.39,0,0,1,1.29-.78,3,3,0,0,1,1.3-.3h.27l.26,0Z"/><path class="cls-4" d="M445.16,132.51l-1.65,7.13h-2.3l1.65-7.13Zm.7-2.75-.4,1.73H443l.4-1.73Z"/><path class="cls-4" d="M449.78,138.88l-.52.34a4.85,4.85,0,0,1-.56.32,5.78,5.78,0,0,1-.67.22,3.79,3.79,0,0,1-.86.08,2.09,2.09,0,0,1-1.45-.5,1.66,1.66,0,0,1-.57-1.3,2.57,2.57,0,0,1,.4-1.44,2.7,2.7,0,0,1,1.19-.93,6.62,6.62,0,0,1,1.75-.48c.68-.1,1.42-.17,2.21-.22,0,0,0-.06,0-.12a.58.58,0,0,0,0-.19.64.64,0,0,0-.41-.64,3.34,3.34,0,0,0-1.25-.18,4.94,4.94,0,0,0-1.25.19c-.46.13-.8.24-1,.32h-.21l.34-1.69c.27-.07.68-.14,1.24-.23a11.73,11.73,0,0,1,1.67-.12,5.16,5.16,0,0,1,2.46.44,1.44,1.44,0,0,1,.78,1.35c0,.09,0,.2,0,.33a2.69,2.69,0,0,1-.06.36l-1.12,4.85h-2.27Zm.61-2.61-1.15.12a4.72,4.72,0,0,0-.91.21,1.23,1.23,0,0,0-.59.39,1,1,0,0,0-.21.67.53.53,0,0,0,.28.52,1.63,1.63,0,0,0,.78.15,2,2,0,0,0,.73-.15,3.89,3.89,0,0,0,.72-.4Z"/><path class="cls-4" d="M456.35,139.84a8.64,8.64,0,0,1-1.77-.18,4.87,4.87,0,0,1-1.31-.4l.44-1.88h.21a2.87,2.87,0,0,0,.35.27,3.39,3.39,0,0,0,.61.31,5.13,5.13,0,0,0,.78.25,4.22,4.22,0,0,0,1,.1,2.81,2.81,0,0,0,1.15-.18.54.54,0,0,0,.39-.5.42.42,0,0,0-.28-.39,6.13,6.13,0,0,0-1.13-.33,5,5,0,0,1-2-.81,1.53,1.53,0,0,1-.54-1.19,2.15,2.15,0,0,1,1.08-1.9,5.37,5.37,0,0,1,2.92-.7,7.91,7.91,0,0,1,1.6.17,5,5,0,0,1,1.17.34l-.42,1.8h-.19a3.73,3.73,0,0,0-1.09-.56,4,4,0,0,0-1.31-.22,3,3,0,0,0-1.13.17.58.58,0,0,0-.39.54.47.47,0,0,0,.34.43,5.56,5.56,0,0,0,1.06.3,5.14,5.14,0,0,1,1.94.74,1.46,1.46,0,0,1,.6,1.24,2.15,2.15,0,0,1-1.09,1.89A5.52,5.52,0,0,1,456.35,139.84Z"/></g></g></svg>